<mxfile host="app.diagrams.net" modified="2023-10-21T12:21:50.299Z" agent="Mozilla/5.0 (Windows NT 10.0; Win64; x64) AppleWebKit/537.36 (KHTML, like Gecko) Chrome/118.0.0.0 Safari/537.36" etag="XY8H-0Ht94H1zjqTY8lq" version="22.0.6" type="device">
  <diagram name="Page-1" id="kFE5Mb2rQv4jpOTEcvFn">
    <mxGraphModel dx="875" dy="445" grid="1" gridSize="10" guides="1" tooltips="1" connect="1" arrows="1" fold="1" page="1" pageScale="1" pageWidth="850" pageHeight="1100" math="0" shadow="0">
      <root>
        <mxCell id="0" />
        <mxCell id="1" parent="0" />
        <mxCell id="EWLnN4tcjab5WYRpUd4h-1" value="" style="endArrow=none;dashed=1;html=1;rounded=0;" edge="1" parent="1">
          <mxGeometry width="50" height="50" relative="1" as="geometry">
            <mxPoint x="345" y="420" as="sourcePoint" />
            <mxPoint x="345" y="140" as="targetPoint" />
          </mxGeometry>
        </mxCell>
        <mxCell id="EWLnN4tcjab5WYRpUd4h-2" value="" style="rounded=0;whiteSpace=wrap;html=1;imageHeight=29;" vertex="1" parent="1">
          <mxGeometry x="210" y="224" width="440" height="106" as="geometry" />
        </mxCell>
        <mxCell id="EWLnN4tcjab5WYRpUd4h-3" value=":System" style="shape=umlLifeline;perimeter=lifelinePerimeter;whiteSpace=wrap;html=1;container=0;dropTarget=0;collapsible=0;recursiveResize=0;outlineConnect=0;portConstraint=eastwest;newEdgeStyle={&quot;edgeStyle&quot;:&quot;elbowEdgeStyle&quot;,&quot;elbow&quot;:&quot;vertical&quot;,&quot;curved&quot;:0,&quot;rounded&quot;:0};" vertex="1" parent="1">
          <mxGeometry x="550" y="88" width="100" height="332" as="geometry" />
        </mxCell>
        <mxCell id="EWLnN4tcjab5WYRpUd4h-4" value="" style="html=1;points=[];perimeter=orthogonalPerimeter;outlineConnect=0;targetShapes=umlLifeline;portConstraint=eastwest;newEdgeStyle={&quot;edgeStyle&quot;:&quot;elbowEdgeStyle&quot;,&quot;elbow&quot;:&quot;vertical&quot;,&quot;curved&quot;:0,&quot;rounded&quot;:0};" vertex="1" parent="EWLnN4tcjab5WYRpUd4h-3">
          <mxGeometry x="45" y="80" width="10" height="220" as="geometry" />
        </mxCell>
        <mxCell id="EWLnN4tcjab5WYRpUd4h-5" value="User" style="shape=umlActor;verticalLabelPosition=bottom;verticalAlign=top;html=1;outlineConnect=0;" vertex="1" parent="1">
          <mxGeometry x="335" y="69" width="20" height="50" as="geometry" />
        </mxCell>
        <mxCell id="EWLnN4tcjab5WYRpUd4h-6" value="" style="html=1;points=[];perimeter=orthogonalPerimeter;outlineConnect=0;targetShapes=umlLifeline;portConstraint=eastwest;newEdgeStyle={&quot;edgeStyle&quot;:&quot;elbowEdgeStyle&quot;,&quot;elbow&quot;:&quot;vertical&quot;,&quot;curved&quot;:0,&quot;rounded&quot;:0};" vertex="1" parent="1">
          <mxGeometry x="340" y="171" width="10" height="219" as="geometry" />
        </mxCell>
        <mxCell id="EWLnN4tcjab5WYRpUd4h-7" value="" style="endArrow=classic;html=1;rounded=0;" edge="1" parent="1" target="EWLnN4tcjab5WYRpUd4h-4">
          <mxGeometry width="50" height="50" relative="1" as="geometry">
            <mxPoint x="350" y="210" as="sourcePoint" />
            <mxPoint x="510" y="210" as="targetPoint" />
          </mxGeometry>
        </mxCell>
        <mxCell id="EWLnN4tcjab5WYRpUd4h-8" value="" style="html=1;labelBackgroundColor=#ffffff;startArrow=none;startFill=0;startSize=6;endArrow=classic;endFill=1;endSize=6;jettySize=auto;orthogonalLoop=1;strokeWidth=1;dashed=1;fontSize=14;rounded=0;" edge="1" parent="1">
          <mxGeometry width="60" height="60" relative="1" as="geometry">
            <mxPoint x="595" y="270" as="sourcePoint" />
            <mxPoint x="350" y="270" as="targetPoint" />
          </mxGeometry>
        </mxCell>
        <mxCell id="EWLnN4tcjab5WYRpUd4h-9" value="ManageProfile(user_id)" style="text;strokeColor=none;align=center;fillColor=none;html=1;verticalAlign=middle;whiteSpace=wrap;rounded=0;" vertex="1" parent="1">
          <mxGeometry x="354" y="178" width="240" height="30" as="geometry" />
        </mxCell>
        <mxCell id="EWLnN4tcjab5WYRpUd4h-10" value="User Id is invalid" style="text;strokeColor=none;align=center;fillColor=none;html=1;verticalAlign=middle;whiteSpace=wrap;rounded=0;" vertex="1" parent="1">
          <mxGeometry x="396" y="242.5" width="150" height="30" as="geometry" />
        </mxCell>
        <mxCell id="EWLnN4tcjab5WYRpUd4h-11" value="" style="endArrow=none;dashed=1;html=1;rounded=0;exitX=-0.003;exitY=0.634;exitDx=0;exitDy=0;exitPerimeter=0;" edge="1" parent="1">
          <mxGeometry width="50" height="50" relative="1" as="geometry">
            <mxPoint x="208.68000000000006" y="285.4200000000001" as="sourcePoint" />
            <mxPoint x="650" y="282" as="targetPoint" />
          </mxGeometry>
        </mxCell>
        <mxCell id="EWLnN4tcjab5WYRpUd4h-12" value="" style="verticalLabelPosition=bottom;verticalAlign=top;html=1;shape=card;whiteSpace=wrap;size=20;arcSize=12;rotation=-180;" vertex="1" parent="1">
          <mxGeometry x="210" y="224" width="80" height="30" as="geometry" />
        </mxCell>
        <mxCell id="EWLnN4tcjab5WYRpUd4h-13" value="&lt;b&gt;ALT&lt;/b&gt;" style="text;strokeColor=none;align=center;fillColor=none;html=1;verticalAlign=middle;whiteSpace=wrap;rounded=0;" vertex="1" parent="1">
          <mxGeometry x="210" y="224" width="60" height="30" as="geometry" />
        </mxCell>
        <mxCell id="EWLnN4tcjab5WYRpUd4h-14" value="InvalidUser" style="text;strokeColor=none;align=center;fillColor=none;html=1;verticalAlign=middle;whiteSpace=wrap;rounded=0;" vertex="1" parent="1">
          <mxGeometry x="218" y="255" width="108" height="30" as="geometry" />
        </mxCell>
        <mxCell id="EWLnN4tcjab5WYRpUd4h-15" value="" style="html=1;labelBackgroundColor=#ffffff;startArrow=none;startFill=0;startSize=6;endArrow=classic;endFill=1;endSize=6;jettySize=auto;orthogonalLoop=1;strokeWidth=1;dashed=1;fontSize=14;rounded=0;" edge="1" parent="1">
          <mxGeometry width="60" height="60" relative="1" as="geometry">
            <mxPoint x="593.5" y="354.5" as="sourcePoint" />
            <mxPoint x="348.5" y="354.5" as="targetPoint" />
          </mxGeometry>
        </mxCell>
        <mxCell id="EWLnN4tcjab5WYRpUd4h-16" value="User Edited" style="text;strokeColor=none;align=center;fillColor=none;html=1;verticalAlign=middle;whiteSpace=wrap;rounded=0;" vertex="1" parent="1">
          <mxGeometry x="403.75" y="329" width="132.5" height="30" as="geometry" />
        </mxCell>
        <mxCell id="EWLnN4tcjab5WYRpUd4h-17" value="ValidUser" style="text;strokeColor=none;align=center;fillColor=none;html=1;verticalAlign=middle;whiteSpace=wrap;rounded=0;" vertex="1" parent="1">
          <mxGeometry x="218" y="295" width="108" height="30" as="geometry" />
        </mxCell>
        <mxCell id="EWLnN4tcjab5WYRpUd4h-18" value="&lt;font style=&quot;font-size: 30px;&quot;&gt;X&lt;/font&gt;" style="text;strokeColor=none;align=center;fillColor=none;html=1;verticalAlign=middle;whiteSpace=wrap;rounded=0;" vertex="1" parent="1">
          <mxGeometry x="332" y="423.01" width="27" height="10" as="geometry" />
        </mxCell>
        <mxCell id="EWLnN4tcjab5WYRpUd4h-19" value="&lt;font style=&quot;font-size: 30px;&quot;&gt;X&lt;/font&gt;" style="text;strokeColor=none;align=center;fillColor=none;html=1;verticalAlign=middle;whiteSpace=wrap;rounded=0;" vertex="1" parent="1">
          <mxGeometry x="587" y="421.28999999999996" width="27" height="10" as="geometry" />
        </mxCell>
        <mxCell id="EWLnN4tcjab5WYRpUd4h-20" value="EditUser(username, password, emailaddress, phone)" style="text;strokeColor=none;align=center;fillColor=none;html=1;verticalAlign=middle;whiteSpace=wrap;rounded=0;" vertex="1" parent="1">
          <mxGeometry x="390" y="289" width="174" height="30" as="geometry" />
        </mxCell>
        <mxCell id="EWLnN4tcjab5WYRpUd4h-21" value="" style="endArrow=classic;html=1;rounded=0;" edge="1" parent="1">
          <mxGeometry width="50" height="50" relative="1" as="geometry">
            <mxPoint x="350" y="318.5" as="sourcePoint" />
            <mxPoint x="595" y="318.5" as="targetPoint" />
          </mxGeometry>
        </mxCell>
      </root>
    </mxGraphModel>
  </diagram>
</mxfile>
